<svg width="130" height="19" viewBox="0 0 130 19" fill="none" xmlns="http://www.w3.org/2000/svg">
<path d="M4.30591 0.433579V18.7148H0.535156V0.433579H4.30591ZM15.2667 0.433579L8.01403 9.46121L3.82824 13.9562L3.14949 10.3904L5.97777 6.52315L10.6412 0.433579H15.2667ZM10.9805 18.7148L5.5882 10.2648L8.37844 7.92941L15.4429 18.7148H10.9805ZM28.6661 15.7768V18.7148H19.4524V15.7768H28.6661ZM20.6718 0.433579V18.7148H16.9008V0.433579H20.6718ZM45.032 9.14732V10.0137C45.032 11.4032 44.8435 12.6504 44.4662 13.7553C44.0892 14.8602 43.5572 15.8019 42.8699 16.5804C42.1828 17.3504 41.3616 17.9406 40.4063 18.3507C39.4595 18.7609 38.4078 18.966 37.2514 18.966C36.1032 18.966 35.0515 18.7609 34.0964 18.3507C33.1494 17.9406 32.3282 17.3504 31.6325 16.5804C30.9372 15.8019 30.3966 14.8602 30.011 13.7553C29.634 12.6504 29.4455 11.4032 29.4455 10.0137V9.14732C29.4455 7.74944 29.634 6.50224 30.011 5.40569C30.3883 4.30078 30.9203 3.35909 31.6074 2.58064C32.303 1.80218 33.1242 1.20787 34.0713 0.797694C35.0266 0.387551 36.0781 0.182465 37.2262 0.182465C38.3826 0.182465 39.4344 0.387551 40.3811 0.797694C41.3365 1.20787 42.1577 1.80218 42.8447 2.58064C43.5403 3.35909 44.0766 4.30078 44.4539 5.40569C44.8392 6.50224 45.032 7.74944 45.032 9.14732ZM41.2235 10.0137V9.12221C41.2235 8.15121 41.1354 7.29744 40.9595 6.56081C40.7833 5.82421 40.5236 5.20478 40.18 4.70255C39.8365 4.20032 39.4175 3.82367 38.9232 3.57255C38.4287 3.31304 37.8632 3.18329 37.2262 3.18329C36.5892 3.18329 36.0237 3.31304 35.5292 3.57255C35.0432 3.82367 34.6284 4.20032 34.2849 4.70255C33.9497 5.20478 33.694 5.82421 33.5181 6.56081C33.3422 7.29744 33.2541 8.15121 33.2541 9.12221V10.0137C33.2541 10.9763 33.3422 11.8301 33.5181 12.575C33.694 13.3117 33.954 13.9353 34.2975 14.4459C34.641 14.9481 35.0601 15.329 35.5543 15.5884C36.0489 15.8479 36.6144 15.9777 37.2514 15.9777C37.8881 15.9777 38.4538 15.8479 38.9481 15.5884C39.4426 15.329 39.8574 14.9481 40.1926 14.4459C40.5279 13.9353 40.7833 13.3117 40.9595 12.575C41.1354 11.8301 41.2235 10.9763 41.2235 10.0137ZM57.8531 0.433579H61.6116V12.5123C61.6116 13.9185 61.3098 15.103 60.7066 16.0656C60.1116 17.0282 59.2861 17.7522 58.2304 18.2377C57.1826 18.7232 55.9762 18.966 54.6101 18.966C53.2443 18.966 52.0292 18.7232 50.9649 18.2377C49.9091 17.7522 49.0793 17.0282 48.4761 16.0656C47.8812 15.103 47.5837 13.9185 47.5837 12.5123V0.433579H51.3544V12.5123C51.3544 13.3326 51.4846 14.0022 51.7443 14.5212C52.004 15.0402 52.377 15.421 52.863 15.6638C53.3572 15.9065 53.9399 16.0279 54.6101 16.0279C55.2974 16.0279 55.8798 15.9065 56.3574 15.6638C56.8434 15.421 57.2121 15.0402 57.4635 14.5212C57.7232 14.0022 57.8531 13.3326 57.8531 12.5123V0.433579ZM70.335 18.7148H66.3502L66.3754 15.7768H70.335C71.3238 15.7768 72.1575 15.555 72.8363 15.1113C73.5151 14.6593 74.0262 14.0022 74.3697 13.1401C74.7218 12.2779 74.8977 11.2358 74.8977 10.0137V9.12221C74.8977 8.18469 74.7971 7.36021 74.596 6.64872C74.4035 5.93721 74.1143 5.33872 73.7287 4.85324C73.3432 4.36775 72.8698 4.00361 72.3083 3.76087C71.7468 3.50975 71.1018 3.38421 70.3727 3.38421H66.275V0.433579H70.3727C71.5961 0.433579 72.7147 0.642836 73.7287 1.06138C74.751 1.47152 75.6351 2.06167 76.3811 2.83175C77.1268 3.60184 77.7009 4.52258 78.103 5.59401C78.5138 6.65709 78.7188 7.84152 78.7188 9.14732V10.0137C78.7188 11.3111 78.5138 12.4955 78.103 13.567C77.7009 14.6384 77.1268 15.5592 76.3811 16.3292C75.6434 17.091 74.7596 17.6811 73.7287 18.0996C72.7065 18.5098 71.5752 18.7148 70.335 18.7148ZM68.4872 0.433579V18.7148H64.7161V0.433579H68.4872ZM81.459 0.433579H88.2846C89.6839 0.433579 90.8863 0.642836 91.892 1.06138C92.906 1.47989 93.6855 2.09932 94.2301 2.91964C94.7747 3.73995 95.047 4.74861 95.047 5.94558C95.047 6.92495 94.8794 7.76618 94.5444 8.46929C94.2175 9.16407 93.7524 9.74581 93.1491 10.2146C92.5542 10.675 91.8543 11.0432 91.05 11.3195L89.8558 11.9473H83.9229L83.8977 9.00921H88.3098C88.9716 9.00921 89.5205 8.89201 89.9565 8.65764C90.3921 8.42327 90.719 8.09681 90.9367 7.67829C91.1629 7.25975 91.2762 6.77427 91.2762 6.22181C91.2762 5.63587 91.1672 5.12947 90.9493 4.70255C90.7313 4.27567 90.4004 3.94921 89.9565 3.72321C89.5122 3.49721 88.9551 3.38421 88.2846 3.38421H85.2301V18.7148H81.459V0.433579ZM91.691 18.7148L87.5177 10.5661L91.5025 10.541L95.7257 18.5391V18.7148H91.691ZM105.392 3.55998L100.414 18.7148H96.4045L103.205 0.433579H105.757L105.392 3.55998ZM109.527 18.7148L104.537 3.55998L104.135 0.433579H106.712L113.55 18.7148H109.527ZM109.301 11.9096V14.8602H99.6349V11.9096H109.301ZM125.629 12.6504H129.388C129.312 13.8809 128.973 14.9732 128.369 15.9274C127.774 16.8817 126.941 17.6267 125.868 18.1624C124.804 18.6981 123.522 18.966 122.022 18.966C120.848 18.966 119.797 18.7651 118.867 18.3633C117.937 17.9531 117.141 17.3672 116.478 16.6055C115.825 15.8438 115.326 14.923 114.983 13.8432C114.639 12.7634 114.467 11.5538 114.467 10.2146V8.94641C114.467 7.60712 114.643 6.39758 114.995 5.31781C115.356 4.22964 115.867 3.30469 116.529 2.54295C117.199 1.78124 118 1.19529 118.929 0.78515C119.86 0.374979 120.899 0.169922 122.047 0.169922C123.572 0.169922 124.858 0.446151 125.906 0.998608C126.962 1.55106 127.779 2.31278 128.357 3.28375C128.943 4.25472 129.296 5.35964 129.413 6.59849H125.642C125.6 5.86187 125.453 5.23827 125.202 4.72766C124.95 4.20869 124.569 3.81947 124.058 3.55998C123.555 3.29212 122.885 3.15821 122.047 3.15821C121.419 3.15821 120.87 3.27538 120.4 3.50975C119.931 3.74412 119.537 4.09989 119.219 4.57701C118.9 5.05412 118.661 5.65681 118.502 6.38504C118.351 7.10489 118.276 7.95032 118.276 8.92132V10.2146C118.276 11.1604 118.347 11.9933 118.49 12.7132C118.632 13.4247 118.85 14.0274 119.143 14.5212C119.445 15.0067 119.83 15.375 120.3 15.6261C120.777 15.8689 121.351 15.9902 122.022 15.9902C122.81 15.9902 123.459 15.8647 123.97 15.6136C124.481 15.3624 124.871 14.99 125.139 14.4961C125.416 14.0022 125.579 13.387 125.629 12.6504Z" fill="#1364A5"/>
</svg>
